<svg width="99" height="61" viewBox="0 0 99 61" fill="none" xmlns="http://www.w3.org/2000/svg">
<path d="M12.9607 24.1734C6.77895 29.104 -1.36897 42.0824 7.16816 49.63C35.5747 69.2314 91.852 34.8834 92.4586 16.5702C92.8528 4.67294 80.4338 1.5559 68.9448 1.0305C85.5086 -0.495182 101.799 5.87529 98.0742 20.8694C88.0156 45.8309 46.1286 61.4767 25.4201 60.8705C-16.6994 58.7184 4.24663 30.2862 12.9607 24.1734Z" fill="white"/>
<path d="M83.9213 27.5932C89.7593 15.2969 83.5675 10.0934 74.7574 7.96652L75.8745 3.65723C99.3427 8.15344 86.115 27.8913 83.9213 27.5932Z" fill="white"/>
<path d="M18.6674 21.1929L19.4054 25.7901C14.0274 30.7814 10.7773 36.3891 11.4698 42.1381C13.0316 49.4634 22.8678 52.535 31.9255 53.0604C20.295 55.0458 -10.2395 45.8513 18.6674 21.1929Z" fill="white"/>
<path d="M30.4342 37.6471L35.6353 15.262L41.2105 37.6471H50.9658L56.1164 15.4641L61.0496 37.6471H72.1443L63.2483 2.08154H52.5226L46.5734 24.6636L40.6747 2.08154H29.2009L20.2443 37.6471H30.4342Z" fill="white"/>
</svg>
