<svg width="25" height="24" viewBox="0 0 25 24" fill="none" xmlns="http://www.w3.org/2000/svg">
<path fill-rule="evenodd" clip-rule="evenodd" d="M2.25 0C1.14543 0 0.25 0.89543 0.25 2V22C0.25 23.1046 1.14543 24 2.25 24H22.25C23.3546 24 24.25 23.1046 24.25 22V2C24.25 0.895431 23.3546 0 22.25 0H2.25ZM20.4277 9.70787C20.4299 10.3256 20.4322 10.9455 20.4388 11.5609C20.8001 11.565 21.1629 11.5667 21.525 11.5683C21.7673 11.5694 22.0092 11.5705 22.25 11.5723V13.4197C21.9474 13.4231 21.6448 13.4254 21.3416 13.4277C21.0407 13.43 20.7392 13.4322 20.4366 13.4356L20.4365 13.4478C20.4321 14.0648 20.4277 14.6796 20.4254 15.2921H18.6188C18.617 15.0453 18.6159 14.7982 18.6148 14.551C18.6132 14.1806 18.6116 13.81 18.6076 13.4402C18.3061 13.4368 18.0035 13.4339 17.7009 13.4311C17.3983 13.4282 17.0957 13.4254 16.7942 13.4219V11.5746C17.3972 11.5678 18.0001 11.5632 18.6076 11.5609C18.6121 10.9398 18.6165 10.321 18.6232 9.70446H20.4277L20.4277 9.70787ZM8.60491 13.785C8.60267 13.0475 8.60044 12.3076 8.60267 11.5701C10.626 11.5632 12.6493 11.5609 14.6749 11.5769C14.7977 13.3146 14.5721 15.1642 13.5292 16.6005C11.9481 18.8749 8.77463 19.5394 6.3002 18.5643C3.81684 17.5961 2.05705 14.9131 2.26697 12.1752C2.32057 8.82533 5.32874 5.89335 8.60267 6.00524C10.1704 5.93217 11.6443 6.63091 12.8458 7.61052C12.3344 8.20422 11.8029 8.77966 11.2357 9.31627C9.79076 8.29556 7.73841 8.00556 6.2935 9.18383C4.22776 10.6452 4.13396 14.0956 6.12154 15.6689C8.0533 17.4637 11.7046 16.5731 12.2384 13.8261C11.7773 13.8192 11.3158 13.8175 10.8543 13.8158C10.1043 13.8132 9.35419 13.8105 8.60491 13.785Z" fill="white" fill-opacity="0.7"/>
</svg>
