<svg width="25" height="24" viewBox="0 0 25 24" fill="none" xmlns="http://www.w3.org/2000/svg">
<path fill-rule="evenodd" clip-rule="evenodd" d="M2.25 0C1.14543 0 0.25 0.89543 0.25 2V22C0.25 23.1046 1.14543 24 2.25 24H22.25C23.3546 24 24.25 23.1046 24.25 22V2C24.25 0.895431 23.3546 0 22.25 0H2.25ZM20.2956 6.93118C20.5696 7.19085 20.768 7.51992 20.8699 7.88338V7.88263C21.1386 9.24462 21.2643 10.631 21.2448 12.0191C21.2537 13.4013 21.1279 14.7812 20.8692 16.139C20.7677 16.5025 20.5695 16.8316 20.2956 17.0912C20.0139 17.3589 19.6687 17.5504 19.2924 17.6476C16.9521 17.9091 14.5979 18.0267 12.2431 18C12.2431 18 6.62965 18 5.20285 17.6296C4.82197 17.5283 4.47558 17.3372 4.19742 17.0725C3.91925 16.8078 3.71907 16.4802 3.61635 16.121C3.36368 14.761 3.24147 13.3822 3.25046 12.0018C3.24168 10.6203 3.3642 9.24101 3.61635 7.88263C3.72131 7.52199 3.92225 7.19284 4.19966 6.92593C4.482 6.65623 4.82661 6.46048 5.20285 6.35611C7.54019 6.09465 9.89138 5.97696 12.2431 6.00372C12.2431 6.00372 17.8844 6.00372 19.2924 6.37485C19.6687 6.47205 20.0139 6.66351 20.2956 6.93118ZM10.4497 9.43539V14.569L15.1432 12.0026L10.4497 9.43539Z" fill="white" fill-opacity="0.7"/>
</svg>
