<svg width="92" height="56" viewBox="0 0 92 56" fill="none" xmlns="http://www.w3.org/2000/svg">
<path d="M12.6813 22.0079C6.9666 26.5685 -0.565832 38.5727 7.3264 45.5538C33.5871 63.684 85.6133 31.9141 86.174 14.9755C86.5385 3.9712 75.0576 1.08813 64.4365 0.602164C79.749 -0.809 94.8092 5.08331 91.3654 18.952C82.0667 42.0399 43.3438 56.5113 24.1996 55.9506C-14.7382 53.96 4.62557 27.6619 12.6813 22.0079Z" fill="#222222"/>
<path d="M28.835 34.4701L33.6432 13.7652L38.7972 34.4701H47.8156L52.5771 13.9522L57.1377 34.4701H67.3943L59.1703 1.5741H49.2548L43.755 22.4612L38.3019 1.5741H27.6948L19.4148 34.4701H28.835Z" fill="#222222"/>
</svg>
